<svg xmlns="http://www.w3.org/2000/svg" width="52" height="22" fill="none"><path fill="#fff" d="M4.7 21H.2V.9H5l7.2 9.51 2.76 4.23h.33l-.21-4.05V.9h4.5V21h-4.8l-7.41-9.6-2.55-3.78h-.3l.18 3.69V21zm21.768 0h-4.5V5.97h4.5V21zm0-16.56h-4.5V.9h4.5v3.54zM33.323 21h-4.5V.9h4.5V21zm10.335.3c-1.66 0-3.13-.28-4.41-.84-1.28-.56-2.27-1.42-2.97-2.58-.7-1.16-1.05-2.62-1.05-4.38 0-1.6.35-2.98 1.05-4.14.7-1.18 1.67-2.09 2.91-2.73 1.26-.64 2.72-.96 4.38-.96 1.64 0 3.07.28 4.29.84 1.24.56 2.2 1.39 2.88 2.49.68 1.08 1.02 2.4 1.02 3.96 0 .26-.01.5-.03.72-.02.22-.05.46-.09.72h-13.5v-2.37h10.32l-1.02 1.47v-1.11c0-1.14-.31-1.96-.93-2.46-.62-.5-1.63-.75-3.03-.75-1.52 0-2.58.3-3.18.9-.6.58-.9 1.51-.9 2.79v1.14c0 1.28.3 2.22.9 2.82.6.58 1.67.87 3.21.87 1.32 0 2.25-.17 2.79-.51.54-.34.81-.83.81-1.47v-.3h4.5v.33c0 1.08-.33 2.04-.99 2.88-.66.84-1.59 1.5-2.79 1.98-1.18.46-2.57.69-4.17.69z"/></svg>