<svg xmlns="http://www.w3.org/2000/svg" width="30" height="30" fill="none"><path fill="#E6E6E6" d="M15.015 28C8.112 28 2.5 22.398 2.5 15.505 2.5 8.602 8.112 3 15.015 3c6.902 0 12.514 5.602 12.514 12.495C27.53 22.388 21.917 28 15.015 28zm10.55-10.794c-.363-.117-3.306-.987-6.66-.46 1.4 3.833 1.966 6.962 2.074 7.607a10.613 10.613 0 0 0 4.585-7.147zm-6.376 8.135c-.156-.939-.782-4.204-2.278-8.096a.18.18 0 0 1-.068.02c-6.033 2.102-8.193 6.277-8.389 6.668a10.647 10.647 0 0 0 6.56 2.248c1.477.01 2.895-.293 4.175-.84zM7.076 22.65c.244-.41 3.177-5.26 8.692-7.048.136-.05.283-.088.42-.127a27.856 27.856 0 0 0-.87-1.81c-5.339 1.595-10.52 1.526-10.99 1.516 0 .108-.01.215-.01.323a10.683 10.683 0 0 0 2.758 7.147zm-2.523-9.326c.48.01 4.879.029 9.885-1.3-1.77-3.149-3.686-5.789-3.96-6.17a10.706 10.706 0 0 0-5.925 7.47zm7.959-8.194a56.228 56.228 0 0 1 3.989 6.248c3.803-1.427 5.406-3.578 5.602-3.852a10.657 10.657 0 0 0-7.088-2.689 11.1 11.1 0 0 0-2.503.293zm10.774 3.63c-.225.303-2.014 2.6-5.964 4.214.245.508.489 1.026.714 1.544.078.186.156.372.234.548 3.56-.45 7.089.274 7.44.342a10.633 10.633 0 0 0-2.424-6.648z"/></svg>