<svg xmlns="http://www.w3.org/2000/svg" width="30" height="30" fill="none"><path fill="#F2F2F2" d="M24.84 5.891a.288.288 0 0 0-.26-.242c-.11-.01-2.403-.18-2.403-.18s-1.593-1.58-1.768-1.756c-.175-.175-.517-.122-.65-.083l-.891.276C18.336 2.374 17.397.967 15.744.967c-.046 0-.092.002-.14.005C15.135.35 14.554.08 14.05.08c-3.85 0-5.688 4.812-6.265 7.257l-2.694.836c-.835.262-.861.288-.97 1.075a19710.6 19710.6 0 0 0-2.268 17.488l17.022 3.19 9.223-1.995S24.86 6.04 24.84 5.89zm-6.913-1.694-1.44.446v-.311c0-.952-.131-1.718-.343-2.326.851.107 1.418 1.076 1.783 2.19zm-2.84-2.002c.237.593.391 1.444.391 2.593v.167l-2.975.921c.572-2.21 1.646-3.278 2.585-3.681zm-1.143-1.083a.87.87 0 0 1 .494.167c-1.234.58-2.556 2.043-3.115 4.962l-2.35.728c.653-2.227 2.206-5.857 4.971-5.857z"/><path fill="#E6E6E6" d="M24.58 5.649c-.11-.01-2.403-.18-2.403-.18s-1.593-1.58-1.768-1.756a.437.437 0 0 0-.246-.113l-1.287 26.325 9.222-1.995S24.86 6.041 24.84 5.891a.289.289 0 0 0-.26-.242z"/><path fill="#2E2E2E" d="m15.744 10.745-1.137 3.383s-.996-.532-2.218-.532c-1.79 0-1.88 1.124-1.88 1.407 0 1.545 4.027 2.137 4.027 5.756 0 2.847-1.806 4.68-4.24 4.68-2.923 0-4.417-1.818-4.417-1.818l.782-2.585s1.536 1.319 2.832 1.319c.847 0 1.192-.667 1.192-1.154 0-2.016-3.304-2.106-3.304-5.417 0-2.787 2-5.485 6.038-5.485 1.556 0 2.325.446 2.325.446z"/></svg>