<svg xmlns="http://www.w3.org/2000/svg" width="25" height="24" fill="none"><path fill="#E94B30" d="m12.666 16.068-3.771 3.905c-.54.559-.81.839-1.04.935-.52.22-1.099.032-1.373-.448-.12-.21-.158-.59-.232-1.35-.043-.43-.064-.644-.128-.824a1.433 1.433 0 0 0-.835-.864c-.173-.067-.38-.089-.795-.133-.734-.077-1.101-.116-1.305-.24-.463-.284-.646-.883-.433-1.422.094-.237.364-.517.904-1.076L6.122 12l1.238-1.238 5.306 5.306 5.306-5.306L19.21 12l2.464 2.55c.54.56.81.84.904 1.076.213.54.03 1.139-.433 1.423-.204.124-.57.163-1.305.24-.414.044-.622.066-.795.133-.389.149-.69.462-.835.864-.064.18-.085.394-.128.823-.075.76-.112 1.14-.232 1.351-.274.48-.853.669-1.374.448-.228-.096-.498-.376-1.038-.935l-3.772-3.905z" opacity=".5"/><path fill="#E94B30" fill-rule="evenodd" d="M12.666 16a7 7 0 1 0 0-14 7 7 0 0 0 0 14zm0-10c-.284 0-.474.34-.854 1.023l-.098.176c-.108.194-.162.29-.247.354-.084.064-.189.088-.398.135l-.191.044c-.738.167-1.107.25-1.195.532-.088.283.164.577.667 1.165l.13.152c.143.167.215.25.247.354.032.104.021.215 0 .438l-.02.203c-.076.785-.114 1.178.116 1.352.23.174.575.015 1.266-.303l.178-.082c.197-.09.295-.135.399-.135.104 0 .202.045.399.135l.178.082c.691.319 1.037.477 1.266.303.23-.174.192-.567.116-1.352l-.02-.203c-.021-.223-.032-.334 0-.438.032-.103.104-.187.247-.354l.13-.152c.503-.588.755-.882.667-1.165-.088-.282-.457-.365-1.195-.532l-.19-.044c-.21-.047-.315-.07-.4-.135-.084-.064-.138-.16-.246-.354l-.098-.176C13.14 6.34 12.95 6 12.666 6z" clip-rule="evenodd"/></svg>