<svg xmlns="http://www.w3.org/2000/svg" width="240" height="100" fill="none"><path fill="#383838" d="M44.512 83.005s.139-.122.312-.384c.156-.261.364-.645.433-1.186.052-.261.07-.558.035-.89 0-.174-.035-.348-.07-.523-.034-.174-.086-.366-.138-.575-.26-.803-.745-1.727-1.56-2.739a20.844 20.844 0 0 0-2.2-2.267c-.78-.68-1.56-1.309-2.235-1.815-.693-.505-1.282-.941-1.698-1.238-.208-.14-.381-.262-.485-.331a.89.89 0 0 1-.174-.122s.104 1.343.434 2.895c.312 1.552.849 3.314 1.455 4.1.312.4.832.889 1.456 1.43.623.54 1.334 1.116 1.992 1.64.676.522 1.3 1.028 1.733 1.395.225.192.416.331.537.436.121.104.208.157.208.157l-.035.017zM35.85 78.4s.138-.139.276-.4a3.51 3.51 0 0 0 .382-1.17c.069-.505.052-1.15-.156-1.9s-.59-1.605-1.23-2.565a19.139 19.139 0 0 0-1.716-2.197 50.384 50.384 0 0 0-1.715-1.867c-.52-.54-.97-1.012-1.282-1.326l-.382-.383-.138-.14s0 .087-.035.227c-.017.14-.034.349-.07.593-.034.244-.051.558-.069.872 0 .331-.034.698-.017 1.064v.576c0 .192.017.383.035.575a11.154 11.154 0 0 0 .364 2.146c.086.296.208.558.329.767.243.402.676.942 1.23 1.5a28.282 28.282 0 0 0 1.802 1.692 37.213 37.213 0 0 0 1.664 1.344c.433.348.727.558.727.558v.035zm-8.23-5.041s.139-.122.33-.349c.173-.227.398-.593.537-1.082a5.258 5.258 0 0 0 .19-1.831c-.052-.733-.242-1.587-.624-2.581-.294-.803-.675-1.588-1.04-2.338-.363-.733-.744-1.448-1.056-2.04-.33-.611-.59-1.117-.78-1.483-.087-.175-.173-.332-.225-.437a.99.99 0 0 1-.07-.122c0-.017-.017-.034-.017-.034s-.034.07-.104.191c-.052.123-.139.297-.242.524a9.2 9.2 0 0 0-.312.785c-.052.14-.122.314-.174.47-.034.088-.052.158-.086.245-.017.087-.052.174-.07.261a10.96 10.96 0 0 0-.277 1.082c-.07.366-.138.733-.173 1.081l-.052.524v.488c0 .157 0 .297.035.436.017.14.052.244.086.367.035.104.07.226.122.366.052.122.12.261.173.401.07.14.139.296.225.454.087.157.173.313.277.47.381.646.867 1.344 1.37 1.954.242.314.484.593.71.872.225.262.45.506.623.698.19.21.33.366.45.47l.174.175v-.017zm-6.93-6.646s.156-.07.398-.244a3.64 3.64 0 0 0 .797-.872c.139-.21.26-.436.382-.715.052-.14.104-.28.155-.437.052-.156.104-.313.14-.488.034-.174.068-.349.103-.54.035-.193.052-.402.07-.611 0-.21.034-.436.034-.663v-.715c-.035-.803-.139-1.622-.242-2.407-.122-.785-.243-1.535-.347-2.216-.121-.662-.208-1.238-.295-1.64-.034-.209-.069-.365-.086-.488-.018-.104-.035-.174-.035-.174s-.208.227-.52.576c-.156.191-.329.4-.52.645-.19.244-.398.523-.606.82-.398.593-.797 1.256-1.074 1.884a8.71 8.71 0 0 0-.347.907c-.086.279-.138.54-.138.767 0 .227 0 .489.052.803.017.157.052.313.086.488l.104.523c.052.175.087.367.139.541.052.192.104.366.173.558.052.192.121.366.19.558.07.192.14.367.209.541.277.715.589 1.36.814 1.849.121.227.225.419.294.558.07.14.122.21.122.21l-.052-.018zm-4.592-8.425s.174 0 .434-.104c.277-.088.623-.262 1.005-.559.38-.296.78-.732 1.143-1.325.087-.157.173-.314.26-.489.087-.174.173-.349.243-.54.034-.105.069-.192.12-.297.036-.105.07-.21.122-.314.035-.105.07-.227.104-.331.035-.123.07-.227.104-.35.208-.784.364-1.621.468-2.406a6.07 6.07 0 0 1 .087-.593 6.65 6.65 0 0 0 .069-.576c.052-.384.104-.733.138-1.064.053-.332.087-.646.105-.907.034-.28.069-.523.086-.715a6.34 6.34 0 0 1 .052-.471v-.175s-.26.14-.658.384c-.381.244-.919.61-1.456 1.047-.26.226-.537.453-.797.697-.139.122-.26.244-.381.384a6.942 6.942 0 0 0-.347.384c-.225.261-.415.523-.589.767a3.258 3.258 0 0 0-.346.698c-.035.105-.07.227-.104.349 0 .07-.035.14-.052.21 0 .069-.035.139-.035.226a14.15 14.15 0 0 0-.121.994 16.753 16.753 0 0 0 0 2.285 16.6 16.6 0 0 0 .208 1.971c0 .07 0 .122.017.192 0 .053 0 .105.035.157 0 .105.034.192.052.262.034.14.034.227.034.227v-.018zm-1.821-9.471s.174.035.45.035c.278 0 .66-.07 1.092-.227a4.837 4.837 0 0 0 1.439-.907c.242-.227.52-.488.762-.802.07-.087.121-.157.19-.244.07-.088.122-.175.191-.262.139-.175.26-.366.399-.576.104-.157.208-.331.312-.506.104-.157.19-.331.294-.505.087-.175.19-.35.277-.524.052-.087.087-.174.139-.261l.07-.14.069-.122c.173-.349.329-.68.502-1.012.087-.157.156-.314.225-.47.087-.158.156-.297.226-.454.277-.576.502-1.082.675-1.448.087-.174.139-.331.19-.419.053-.104.07-.157.07-.157s-.07 0-.19.035c-.139.018-.312.07-.537.122a10.46 10.46 0 0 0-.763.21 6.405 6.405 0 0 0-.45.14c-.139.052-.312.104-.468.156-.312.122-.641.244-.97.401-.312.14-.624.314-.919.471-.07.053-.139.088-.208.123a.771.771 0 0 0-.19.139l-.364.262a4.59 4.59 0 0 0-.295.261c-.052.053-.086.087-.121.14-.035.052-.07.087-.104.14-.121.174-.26.4-.399.662-.069.122-.138.28-.207.419-.07.14-.14.314-.191.47-.035.088-.07.158-.104.245-.035.087-.052.174-.087.262-.052.174-.121.349-.173.523-.035.087-.07.174-.087.28-.017.086-.052.173-.069.278a6.165 6.165 0 0 0-.138.54c-.018.088-.053.175-.07.263l-.052.261c-.034.175-.07.35-.104.506-.07.314-.104.628-.156.872-.034.244-.069.454-.086.61 0 .14-.018.227-.018.227l-.052-.017zm1.178-9.577s.138.088.398.175.624.157 1.092.14c.45 0 1.022-.122 1.628-.384.295-.122.624-.297.97-.506.33-.21.711-.453 1.058-.767 1.195-.96 2.322-2.18 3.223-3.158.12-.122.225-.244.329-.349.104-.122.19-.226.294-.33.19-.21.347-.402.486-.542.277-.296.433-.488.433-.488s-.278-.017-.745-.035h-.797c-.295 0-.624 0-.954.035-.086 0-.173 0-.26.017-.086 0-.173 0-.26.018a5.324 5.324 0 0 0-.52.07 5.252 5.252 0 0 0-.519.087c-.156.035-.33.07-.485.105-.312.07-.624.156-.884.261-.26.105-.485.21-.658.332a6.147 6.147 0 0 0-.572.488l-.33.331c-.103.122-.224.245-.328.384-.122.14-.226.28-.347.419-.104.14-.208.296-.33.436l-.172.227s-.104.157-.156.226c-.104.157-.208.314-.312.454-.208.296-.381.61-.537.89-.174.279-.295.54-.416.75-.122.226-.208.4-.277.523a3.854 3.854 0 0 1-.087.192h.035zm4.178-8.703s.104.122.329.279c.208.157.537.331.97.453.225.07.468.105.728.122.277.018.572.018.9 0 .157 0 .33-.034.503-.087a8.21 8.21 0 0 0 .555-.14c.19-.052.381-.122.589-.191.208-.07.416-.157.641-.262.173-.07.347-.157.52-.244a7.57 7.57 0 0 0 .52-.28c.363-.191.693-.383 1.04-.592.328-.21.675-.419.987-.628a6.74 6.74 0 0 1 .468-.297c.156-.104.294-.192.433-.296.139-.105.277-.192.416-.28.138-.087.242-.174.364-.261.225-.157.433-.314.606-.436s.295-.227.399-.297c.086-.07.138-.104.138-.104s-.07-.018-.19-.053c-.122-.035-.295-.07-.52-.122a22.865 22.865 0 0 0-1.698-.331c-.156-.018-.33-.052-.503-.07l-.502-.052c-.347-.018-.676-.053-1.005-.053-.33 0-.641 0-.901.053-.277.035-.52.087-.71.174a2.33 2.33 0 0 0-.313.14c-.12.052-.225.122-.363.192-.122.07-.26.14-.399.226-.139.088-.277.175-.416.28-.138.087-.277.191-.433.296-.139.105-.277.21-.433.331-.295.227-.572.471-.85.698-.138.122-.259.227-.38.349-.122.105-.243.227-.364.331-.225.21-.433.419-.607.593a7.404 7.404 0 0 0-.398.42 2.572 2.572 0 0 1-.139.156l.018-.017z"/><path fill="#E94B30" d="M26.146 22.791s.208.018.59 0c.19 0 .415-.017.692-.052.139 0 .278-.035.416-.07.156-.035.312-.052.485-.105a12.172 12.172 0 0 0 2.305-.802c.866-.401 1.82-.96 2.859-1.744a29.324 29.324 0 0 0 2.339-1.989c.728-.68 1.386-1.36 1.958-1.953.572-.593 1.04-1.117 1.369-1.483.329-.366.52-.593.52-.593s-.104 0-.312.035c-.19.035-.485.07-.815.14-.693.121-1.628.33-2.633.592a25.65 25.65 0 0 0-2.963.977c-.919.367-1.698.75-2.132 1.082-.9.663-2.148 2.128-3.084 3.47-.121.158-.225.332-.346.49-.104.156-.208.313-.312.453-.208.296-.364.575-.503.802-.138.227-.26.419-.329.541-.07.14-.121.21-.121.21h.017z"/><path fill="#383838" d="M40.478 82.255s-.052.175-.19.454a3.463 3.463 0 0 1-.763.994 4.76 4.76 0 0 1-1.68.96c-.763.244-1.716.4-2.98.313-1.006-.052-2.097-.261-3.171-.558a25.757 25.757 0 0 1-3.033-1.046 29.689 29.689 0 0 1-2.27-1.082c-.277-.14-.502-.279-.658-.366a2.185 2.185 0 0 1-.225-.14s.346-.087.9-.244c.555-.157 1.3-.349 2.115-.576a45.1 45.1 0 0 1 2.443-.593c.78-.157 1.49-.261 1.992-.209.503.052 1.23.21 2.028.419.797.209 1.663.453 2.478.697.814.245 1.559.471 2.096.663.537.175.884.297.884.297l.034.017zM31.9 77.702s-.053.175-.209.436c-.138.262-.398.61-.797.925a3.38 3.38 0 0 1-.745.453 4.7 4.7 0 0 1-1.022.332c-.797.157-1.802.192-3.102-.088-1.04-.209-2.148-.61-3.205-1.116-1.057-.488-2.062-1.099-2.928-1.692-.208-.157-.433-.296-.624-.436-.19-.157-.381-.296-.572-.436-.346-.279-.658-.523-.9-.75-.26-.21-.451-.401-.59-.523-.139-.122-.208-.192-.208-.192h1.958c.381 0 .78 0 1.196-.018.849-.017 1.732-.034 2.53-.034h.588c.191 0 .364 0 .538.034.346.035.64.07.883.14.503.14 1.178.419 1.94.75.746.331 1.595.68 2.375 1.012.78.331 1.49.628 2.01.854l.866.35h.017zm-8.006-5.704s-.086.157-.277.384a3.02 3.02 0 0 1-.953.733 3.19 3.19 0 0 1-.814.279c-.312.07-.676.105-1.075.087-.207 0-.415-.035-.64-.052a6.883 6.883 0 0 1-.729-.157 8.45 8.45 0 0 1-.796-.262c-.14-.052-.295-.105-.434-.174-.156-.07-.294-.14-.45-.21-.97-.488-1.958-1.186-2.86-1.988a21.543 21.543 0 0 1-2.39-2.53c-.676-.837-1.179-1.639-1.542-2.197-.174-.28-.312-.523-.399-.68a9.286 9.286 0 0 0-.139-.245s.347.122.901.297c.26.087.59.192.954.296.173.053.363.123.554.175.19.052.381.122.59.174.398.122.796.245 1.212.367.19.052.399.122.606.174.208.07.399.122.59.174.19.07.363.123.554.192.173.07.346.122.503.175.155.07.294.14.433.192.138.07.26.122.364.192.104.07.225.139.346.244.121.087.26.191.399.296.277.21.589.454.918.715.658.506 1.369 1.064 2.044 1.57.676.506 1.3.942 1.768 1.274.225.157.416.279.554.383.139.088.208.14.208.14v-.018zm-6.342-7.605s-.122.14-.364.28a2.702 2.702 0 0 1-1.11.4c-.242.035-.52.053-.848.018a4.416 4.416 0 0 1-1.04-.244 5.384 5.384 0 0 1-1.213-.628 8.371 8.371 0 0 1-1.369-1.134c-.762-.768-1.473-1.745-2.062-2.756a21.92 21.92 0 0 1-.814-1.535c-.121-.262-.225-.506-.347-.768-.104-.244-.19-.506-.294-.75-.19-.488-.33-.942-.468-1.343-.139-.419-.225-.785-.312-1.081-.07-.314-.121-.558-.173-.733l-.052-.262s.294.192.745.506c.121.087.243.175.381.262.139.087.277.192.433.296.295.192.624.42.953.646.347.227.693.453 1.023.698.346.226.675.47.987.697.312.227.607.454.867.663.12.105.242.21.346.314.104.105.19.192.277.297.07.087.156.209.26.331.087.122.19.262.278.401.104.14.19.297.311.454.104.157.208.314.33.488.45.68.935 1.413 1.42 2.093.053.087.122.157.174.245.052.087.121.157.173.244.121.157.225.314.33.453.225.297.415.558.588.768.174.21.312.4.416.523.104.122.156.192.156.192l.018-.035zm-3.673-9.228s-.156.088-.433.14c-.278.07-.676.122-1.144.035-.242-.035-.502-.122-.797-.227a4.857 4.857 0 0 1-.884-.523 4.792 4.792 0 0 1-.468-.401c-.155-.157-.311-.332-.485-.524a10.36 10.36 0 0 1-.485-.645 15.562 15.562 0 0 1-.468-.785 27.2 27.2 0 0 1-.363-.715 18.437 18.437 0 0 1-.312-.785 12.83 12.83 0 0 1-.503-1.64l-.104-.418c-.034-.14-.052-.28-.086-.419-.052-.28-.104-.558-.14-.837-.034-.28-.068-.559-.103-.82a12.002 12.002 0 0 1-.07-.785c0-.262-.017-.506-.034-.75v-.698c0-.436 0-.82.035-1.134 0-.314.034-.575.052-.75 0-.174.034-.261.034-.261s.208.279.555.715c.086.104.173.227.26.349.104.122.208.261.312.4.225.28.467.577.71.908.243.314.502.628.762.96.243.313.503.627.745.941.226.297.45.593.624.872.19.28.33.524.433.75.191.454.399 1.134.624 1.902.121.383.243.785.364 1.186.139.401.26.802.381 1.186.139.384.26.75.364 1.081.052.175.104.332.173.471.052.157.104.297.156.419.087.262.174.471.226.61.051.14.086.227.086.227l-.017-.035zm-.815-9.925s-.173.035-.433 0a2.7 2.7 0 0 1-1.091-.314c-.434-.21-.884-.593-1.335-1.221-.433-.645-.831-1.535-1.057-2.826l-.104-.785c0-.14-.017-.279-.034-.418v-.419c0-.558 0-1.134.052-1.692.086-1.134.312-2.233.554-3.21.122-.47.26-.924.381-1.325l.364-1.047c.225-.575.381-.907.381-.907s.122.314.295.82c.052.122.087.262.139.419.052.14.12.296.173.47.121.332.242.68.381 1.047.139.367.277.75.416 1.117.07.191.139.366.19.558.07.174.14.366.191.54.07.175.121.35.173.524.018.087.052.157.07.244.017.07.052.157.069.244.087.314.139.593.156.82 0 .244.035.54.017.872v1.099c0 .192 0 .401-.017.593v3.471c0 .157 0 .297.017.436 0 .262.018.489.035.628v.227l.017.035zm2.392-9.698s-.156-.018-.416-.123a2.918 2.918 0 0 1-.901-.627c-.33-.332-.641-.838-.849-1.553a6.319 6.319 0 0 1-.208-1.256v-.767c0-.14 0-.28.035-.436 0-.14.034-.297.052-.454.034-.244.086-.506.138-.75.052-.262.122-.506.19-.768.036-.122.07-.261.105-.383.034-.122.086-.244.121-.384.087-.244.19-.506.277-.75l.312-.733.156-.366c.052-.122.121-.227.174-.349.12-.227.225-.453.346-.68l.364-.628a23.59 23.59 0 0 1 1.265-1.936c.173-.244.312-.419.416-.54.104-.123.155-.193.155-.193s.035.314.087.837c.052.506.122 1.204.208 1.954l.104 1.151c.035.384.07.768.087 1.134 0 .175 0 .349.017.523v.489c0 .314-.035.575-.087.82a7.387 7.387 0 0 1-.225.802c-.087.314-.208.645-.33 1.012-.12.366-.259.732-.38 1.116-.07.192-.122.384-.19.576-.035.087-.07.192-.105.279-.034.087-.052.192-.086.279-.122.366-.243.715-.33 1.047-.052.174-.104.314-.138.47-.018.07-.052.14-.07.21a2.88 2.88 0 0 1-.052.192l-.225.82-.017-.035zm5.181-8.477s-.139-.07-.346-.227c-.208-.157-.468-.436-.694-.837a3.745 3.745 0 0 1-.415-1.675c0-.366.034-.767.12-1.22.053-.227.105-.472.174-.716.035-.122.087-.261.122-.384a9.65 9.65 0 0 0 .155-.4c.347-.873.867-1.763 1.439-2.6a20.69 20.69 0 0 1 1.784-2.25 25.608 25.608 0 0 1 1.542-1.552c.208-.175.364-.332.468-.419.122-.105.174-.14.174-.14s-.018.315-.07.803c-.017.244-.052.54-.07.855-.034.314-.051.68-.086 1.029-.034.349-.07.732-.121 1.099-.017.191-.052.366-.07.54-.017.192-.051.367-.069.541-.104.68-.225 1.308-.415 1.71a6.078 6.078 0 0 1-.382.715c-.156.261-.346.558-.537.872-.19.314-.398.628-.624.96-.104.156-.208.33-.312.488l-.311.47a42.01 42.01 0 0 0-1.04 1.658 8.333 8.333 0 0 0-.312.505c-.07.123-.121.192-.121.192l.017-.017z"/><path fill="#fff" d="M62.49 43V30.57H57.7V28.6h11.67v1.97h-4.79V43h-2.09zm11.569.3c-1.08 0-2.017-.243-2.81-.73a4.92 4.92 0 0 1-1.84-2.01c-.427-.86-.64-1.85-.64-2.97 0-1.127.22-2.117.66-2.97a4.837 4.837 0 0 1 1.85-2c.793-.48 1.72-.72 2.78-.72 1.08 0 2.016.243 2.81.73a4.92 4.92 0 0 1 1.84 2.01c.433.853.65 1.837.65 2.95 0 1.127-.22 2.12-.66 2.98a4.92 4.92 0 0 1-1.84 2.01c-.794.48-1.727.72-2.8.72zm0-1.97c1.033 0 1.803-.347 2.31-1.04.513-.7.77-1.6.77-2.7 0-1.127-.26-2.027-.78-2.7-.514-.68-1.28-1.02-2.3-1.02-.7 0-1.277.16-1.73.48-.454.313-.79.75-1.01 1.31-.22.553-.33 1.197-.33 1.93 0 1.133.26 2.04.78 2.72.52.68 1.283 1.02 2.29 1.02zm12.567 1.97c-1.033 0-1.9-.25-2.6-.75-.7-.507-1.23-1.19-1.59-2.05-.36-.86-.54-1.83-.54-2.91s.177-2.05.53-2.91c.36-.86.887-1.537 1.58-2.03.7-.5 1.56-.75 2.58-.75 1.014 0 1.887.25 2.62.75.74.493 1.31 1.17 1.71 2.03.4.853.6 1.823.6 2.91 0 1.08-.2 2.053-.6 2.92-.393.86-.956 1.54-1.69 2.04-.726.5-1.593.75-2.6.75zm-5.08 4.5V32.2h1.86v7.77h.24v7.83h-2.1zm4.79-6.39c.667 0 1.217-.17 1.65-.51.44-.34.767-.797.98-1.37.22-.58.33-1.227.33-1.94 0-.707-.11-1.347-.33-1.92-.213-.573-.543-1.03-.99-1.37-.446-.34-1.016-.51-1.71-.51-.653 0-1.193.16-1.62.48-.42.32-.733.767-.94 1.34-.2.573-.3 1.233-.3 1.98 0 .747.1 1.407.3 1.98.2.573.517 1.023.95 1.35.434.327.994.49 1.68.49zM97.728 43V28.6h4.51c.133 0 .38.003.74.01.367.007.717.033 1.05.08 1.127.14 2.073.543 2.84 1.21.773.667 1.357 1.513 1.75 2.54.393 1.02.59 2.14.59 3.36 0 1.227-.197 2.353-.59 3.38-.393 1.02-.977 1.863-1.75 2.53-.767.66-1.713 1.06-2.84 1.2a8.708 8.708 0 0 1-1.05.08c-.36.007-.607.01-.74.01h-4.51zm2.14-1.99h2.37a20 20 0 0 0 .81-.02c.313-.013.59-.04.83-.08.733-.14 1.327-.457 1.78-.95.46-.5.797-1.113 1.01-1.84.213-.727.32-1.5.32-2.32 0-.847-.11-1.63-.33-2.35-.22-.727-.56-1.333-1.02-1.82-.453-.493-1.04-.807-1.76-.94a4.993 4.993 0 0 0-.84-.08 19.31 19.31 0 0 0-.8-.02h-2.37v10.42zm16.459 2.29c-1.074 0-2.017-.233-2.83-.7a4.973 4.973 0 0 1-1.89-1.97c-.447-.847-.67-1.827-.67-2.94 0-1.18.22-2.203.66-3.07.446-.867 1.066-1.537 1.86-2.01.793-.473 1.716-.71 2.77-.71 1.1 0 2.036.257 2.81.77.773.507 1.35 1.23 1.73 2.17.386.94.54 2.057.46 3.35h-2.09v-.76c-.014-1.253-.254-2.18-.72-2.78-.46-.6-1.164-.9-2.11-.9-1.047 0-1.834.33-2.36.99-.527.66-.79 1.613-.79 2.86 0 1.187.263 2.107.79 2.76.526.647 1.286.97 2.28.97.653 0 1.216-.147 1.69-.44.48-.3.853-.727 1.12-1.28l2.05.65c-.42.967-1.057 1.717-1.91 2.25-.854.527-1.804.79-2.85.79zm-3.85-5.11v-1.63h7.71v1.63h-7.71zm15.123 5.1c-1.313 0-2.383-.29-3.21-.87-.826-.58-1.333-1.397-1.52-2.45l2.14-.33c.134.56.44 1.003.92 1.33.487.32 1.09.48 1.81.48.654 0 1.164-.133 1.53-.4.374-.267.56-.633.56-1.1 0-.273-.066-.493-.2-.66-.126-.173-.396-.337-.81-.49-.413-.153-1.043-.343-1.89-.57-.926-.24-1.663-.497-2.21-.77-.54-.28-.926-.603-1.16-.97-.226-.373-.34-.823-.34-1.35 0-.653.174-1.223.52-1.71.347-.487.834-.863 1.46-1.13.634-.267 1.374-.4 2.22-.4.827 0 1.564.13 2.21.39.647.26 1.17.63 1.57 1.11.4.473.64 1.03.72 1.67l-2.14.39a1.758 1.758 0 0 0-.73-1.23c-.413-.3-.95-.463-1.61-.49-.633-.027-1.146.08-1.54.32-.393.233-.59.557-.59.97 0 .24.074.443.22.61.154.167.447.327.88.48.434.153 1.074.337 1.92.55.907.233 1.627.493 2.16.78.534.28.914.617 1.14 1.01.234.387.35.857.35 1.41 0 1.067-.39 1.903-1.17 2.51-.773.607-1.843.91-3.21.91zm6.793-12.86V28.4h2.09v2.03h-2.09zm0 12.57V32.2h2.09V43h-2.09zm9.543 5.1a5.37 5.37 0 0 1-1.69-.27 4.834 4.834 0 0 1-1.48-.8 4.325 4.325 0 0 1-1.11-1.29l1.93-.98c.233.46.567.797 1 1.01.433.213.89.32 1.37.32.593 0 1.1-.107 1.52-.32.42-.207.737-.52.95-.94.22-.42.327-.94.32-1.56v-3.02h.25V32.2h1.85v11.09c0 .287-.01.56-.03.82-.02.26-.057.52-.11.78-.153.727-.447 1.327-.88 1.8-.427.473-.973.827-1.64 1.06-.66.233-1.41.35-2.25.35zm-.16-4.8c-1.007 0-1.877-.25-2.61-.75-.727-.5-1.29-1.18-1.69-2.04-.393-.867-.59-1.84-.59-2.92 0-1.087.2-2.057.6-2.91.4-.86.967-1.537 1.7-2.03.74-.5 1.617-.75 2.63-.75 1.02 0 1.877.25 2.57.75.7.493 1.227 1.17 1.58 2.03.36.86.54 1.83.54 2.91s-.18 2.05-.54 2.91c-.36.86-.89 1.543-1.59 2.05-.7.5-1.567.75-2.6.75zm.29-1.89c.687 0 1.247-.163 1.68-.49.433-.327.75-.777.95-1.35.2-.573.3-1.233.3-1.98 0-.747-.103-1.407-.31-1.98-.2-.573-.513-1.02-.94-1.34-.42-.32-.957-.48-1.61-.48-.693 0-1.263.17-1.71.51-.447.34-.78.797-1 1.37-.213.573-.32 1.213-.32 1.92 0 .713.107 1.36.32 1.94.22.573.547 1.03.98 1.37.44.34.993.51 1.66.51zM159.234 43v-5.31c0-.42-.037-.85-.11-1.29-.067-.447-.2-.86-.4-1.24a2.344 2.344 0 0 0-.83-.92c-.353-.233-.817-.35-1.39-.35-.373 0-.727.063-1.06.19-.333.12-.627.317-.88.59-.247.273-.443.633-.59 1.08-.14.447-.21.99-.21 1.63l-1.3-.49c0-.98.183-1.843.55-2.59a4.133 4.133 0 0 1 1.58-1.76c.687-.42 1.517-.63 2.49-.63.747 0 1.373.12 1.88.36.507.24.917.557 1.23.95.32.387.563.81.73 1.27.167.46.28.91.34 1.35.06.44.09.827.09 1.16v6h-2.12zm-7.59 0V32.2h1.87v3.12h.25V43h-2.12zm16.968.3c-1.073 0-2.017-.233-2.83-.7a4.973 4.973 0 0 1-1.89-1.97c-.447-.847-.67-1.827-.67-2.94 0-1.18.22-2.203.66-3.07.447-.867 1.067-1.537 1.86-2.01.793-.473 1.717-.71 2.77-.71 1.1 0 2.037.257 2.81.77.773.507 1.35 1.23 1.73 2.17.387.94.54 2.057.46 3.35h-2.09v-.76c-.013-1.253-.253-2.18-.72-2.78-.46-.6-1.163-.9-2.11-.9-1.047 0-1.833.33-2.36.99-.527.66-.79 1.613-.79 2.86 0 1.187.263 2.107.79 2.76.527.647 1.287.97 2.28.97.653 0 1.217-.147 1.69-.44.48-.3.853-.727 1.12-1.28l2.05.65c-.42.967-1.057 1.717-1.91 2.25-.853.527-1.803.79-2.85.79zm-3.85-5.11v-1.63h7.71v1.63h-7.71zM175.755 43V32.2h1.86v2.62l-.26-.34c.134-.347.307-.663.52-.95.214-.293.46-.533.74-.72.274-.2.577-.353.91-.46.34-.113.687-.18 1.04-.2.354-.027.694-.01 1.02.05v1.96a3.386 3.386 0 0 0-1.18-.08c-.426.04-.82.177-1.18.41-.34.22-.61.487-.81.8a3.414 3.414 0 0 0-.42 1.05 5.47 5.47 0 0 0-.13 1.21V43h-2.11z"/><path fill="#666" d="m78.448 65 .008-5.528c0-.645-.173-1.15-.52-1.512-.341-.368-.787-.552-1.336-.552-.32 0-.624.075-.912.224a1.678 1.678 0 0 0-.704.688c-.181.31-.272.707-.272 1.192l-.752-.304c-.01-.613.115-1.15.376-1.608.267-.464.63-.824 1.088-1.08a3.13 3.13 0 0 1 1.552-.384c.901 0 1.61.275 2.128.824.517.544.776 1.277.776 2.2L79.872 65h-1.424zm-10.336 0v-8.64h1.272v2.312h.16V65h-1.432zm5.176 0 .008-5.472c0-.661-.17-1.179-.512-1.552-.341-.379-.795-.568-1.36-.568-.56 0-1.013.192-1.36.576-.347.384-.52.893-.52 1.528l-.752-.448c0-.56.133-1.061.4-1.504.267-.443.63-.79 1.088-1.04a3.146 3.146 0 0 1 1.56-.384c.581 0 1.088.123 1.52.368.432.245.765.597 1 1.056.235.453.352.995.352 1.624L74.704 65h-1.416zm9.563 3.84 1.672-4.544.024 1.344-3.776-9.28h1.496l2.96 7.464h-.512l2.776-7.464h1.448l-4.704 12.48h-1.384zm10.49-3.6c-.806 0-1.497-.2-2.073-.6-.576-.405-1.021-.952-1.336-1.64-.31-.688-.464-1.464-.464-2.328 0-.864.155-1.64.464-2.328.315-.688.76-1.23 1.336-1.624.576-.4 1.264-.6 2.064-.6.816 0 1.502.197 2.056.592.555.395.974.936 1.256 1.624.288.688.432 1.467.432 2.336 0 .859-.144 1.635-.432 2.328-.282.688-.701 1.235-1.256 1.64-.555.4-1.237.6-2.048.6zm.175-1.304c.581 0 1.059-.139 1.432-.416.374-.283.648-.67.824-1.16.181-.496.272-1.059.272-1.688 0-.64-.09-1.203-.272-1.688-.176-.49-.448-.872-.816-1.144-.368-.277-.835-.416-1.4-.416-.587 0-1.072.144-1.456.432a2.58 2.58 0 0 0-.848 1.168 4.727 4.727 0 0 0-.272 1.648c0 .613.093 1.168.28 1.664.187.49.467.88.84 1.168.379.288.85.432 1.416.432zM96.044 65v-6.36h-.16v-5.16h1.432V65h-1.272zm3.514 0v-8.64h1.272v2.088l-.208-.272a3.22 3.22 0 0 1 .392-.736c.165-.224.349-.408.552-.552.224-.181.477-.32.76-.416a3.21 3.21 0 0 1 .864-.168c.293-.021.568-.003.824.056v1.336a2.702 2.702 0 0 0-.984-.064 1.996 1.996 0 0 0-.992.392 2.122 2.122 0 0 0-.648.72c-.15.283-.254.59-.312.92a5.593 5.593 0 0 0-.088 1V65h-1.432zm9.556.24c-.848 0-1.589-.187-2.224-.56a3.925 3.925 0 0 1-1.472-1.576c-.352-.677-.528-1.467-.528-2.368 0-.944.173-1.76.52-2.448.347-.693.829-1.227 1.448-1.6.624-.379 1.355-.568 2.192-.568.869 0 1.608.2 2.216.6.613.4 1.072.97 1.376 1.712.309.741.443 1.624.4 2.648h-1.44v-.512c-.016-1.061-.232-1.853-.648-2.376-.416-.528-1.035-.792-1.856-.792-.88 0-1.549.283-2.008.848-.459.565-.688 1.376-.688 2.432 0 1.019.229 1.808.688 2.368.459.56 1.112.84 1.96.84.571 0 1.067-.13 1.488-.392a2.67 2.67 0 0 0 .992-1.128l1.368.472a3.876 3.876 0 0 1-1.52 1.776c-.672.416-1.427.624-2.264.624zm-3.192-4.16v-1.144h6.384v1.144h-6.384zm11.201 4.16c-.645 0-1.187-.117-1.624-.352a2.508 2.508 0 0 1-.984-.944 2.566 2.566 0 0 1-.328-1.28c0-.453.085-.845.256-1.176.176-.336.421-.613.736-.832.315-.224.691-.4 1.128-.528.411-.112.869-.208 1.376-.288a47.041 47.041 0 0 1 1.552-.232c.523-.07 1.011-.136 1.464-.2l-.512.296c.016-.768-.139-1.336-.464-1.704-.32-.368-.875-.552-1.664-.552-.523 0-.981.12-1.376.36-.389.235-.664.619-.824 1.152l-1.352-.408c.208-.757.611-1.352 1.208-1.784.597-.432 1.384-.648 2.36-.648.784 0 1.456.141 2.016.424.565.277.971.699 1.216 1.264.123.267.2.557.232.872.032.31.048.635.048.976V65h-1.264v-2.072l.296.192c-.325.699-.781 1.227-1.368 1.584-.581.357-1.291.536-2.128.536zm.216-1.192c.512 0 .955-.09 1.328-.272.379-.187.683-.43.912-.728.229-.304.379-.635.448-.992.08-.267.123-.563.128-.888.011-.33.016-.584.016-.76l.496.216c-.464.064-.92.125-1.368.184-.448.059-.872.123-1.272.192a9.4 9.4 0 0 0-1.08.232c-.235.075-.456.17-.664.288-.203.117-.368.27-.496.456-.123.181-.184.408-.184.68 0 .235.059.459.176.672.123.213.309.387.56.52.256.133.589.2 1 .2zm16.656.952.008-5.528c0-.645-.173-1.15-.52-1.512-.341-.368-.787-.552-1.336-.552-.32 0-.624.075-.912.224a1.676 1.676 0 0 0-.704.688c-.181.31-.272.707-.272 1.192l-.752-.304c-.011-.613.115-1.15.376-1.608a2.822 2.822 0 0 1 1.088-1.08 3.13 3.13 0 0 1 1.552-.384c.901 0 1.611.275 2.128.824.517.544.776 1.277.776 2.2l-.008 5.84h-1.424zm-10.336 0v-8.64h1.272v2.312h.16V65h-1.432zm5.176 0 .008-5.472c0-.661-.171-1.179-.512-1.552-.341-.379-.795-.568-1.36-.568-.56 0-1.013.192-1.36.576-.347.384-.52.893-.52 1.528l-.752-.448a2.825 2.825 0 0 1 1.488-2.544 3.148 3.148 0 0 1 1.56-.384c.581 0 1.088.123 1.52.368.432.245.765.597 1 1.056.235.453.352.995.352 1.624L130.251 65h-1.416zm8.932 0v-1.568h1.568V65h-1.568zm7.696.24c-.875 0-1.619-.195-2.232-.584a3.8 3.8 0 0 1-1.392-1.624c-.32-.688-.485-1.472-.496-2.352.011-.901.179-1.693.504-2.376a3.786 3.786 0 0 1 1.416-1.608c.613-.384 1.352-.576 2.216-.576.912 0 1.696.224 2.352.672a3.235 3.235 0 0 1 1.328 1.84l-1.408.424a2.31 2.31 0 0 0-.888-1.168 2.419 2.419 0 0 0-1.4-.416c-.592 0-1.08.139-1.464.416-.384.272-.669.65-.856 1.136-.187.48-.283 1.032-.288 1.656.011.96.232 1.736.664 2.328.437.587 1.085.88 1.944.88.565 0 1.035-.128 1.408-.384.373-.261.656-.637.848-1.128l1.44.376c-.299.805-.765 1.421-1.4 1.848-.635.427-1.4.64-2.296.64zm8.775 0c-.859 0-1.6-.195-2.224-.584a3.867 3.867 0 0 1-1.432-1.616c-.336-.688-.504-1.477-.504-2.368 0-.907.17-1.701.512-2.384a3.807 3.807 0 0 1 1.448-1.592c.624-.384 1.357-.576 2.2-.576.864 0 1.608.195 2.232.584a3.75 3.75 0 0 1 1.432 1.608c.336.683.504 1.47.504 2.36 0 .901-.168 1.696-.504 2.384a3.862 3.862 0 0 1-1.44 1.608c-.624.384-1.366.576-2.224.576zm0-1.352c.896 0 1.562-.299 2-.896.437-.597.656-1.37.656-2.32 0-.976-.222-1.752-.664-2.328-.443-.581-1.107-.872-1.992-.872-.603 0-1.099.136-1.488.408-.39.272-.68.648-.872 1.128-.192.48-.288 1.035-.288 1.664 0 .97.224 1.75.672 2.336.448.587 1.106.88 1.976.88zM170.495 65l.008-5.528c0-.645-.173-1.15-.52-1.512-.341-.368-.787-.552-1.336-.552-.32 0-.624.075-.912.224a1.676 1.676 0 0 0-.704.688c-.181.31-.272.707-.272 1.192l-.752-.304c-.011-.613.115-1.15.376-1.608a2.822 2.822 0 0 1 1.088-1.08 3.13 3.13 0 0 1 1.552-.384c.901 0 1.611.275 2.128.824.517.544.776 1.277.776 2.2l-.008 5.84h-1.424zm-10.336 0v-8.64h1.272v2.312h.16V65h-1.432zm5.176 0 .008-5.472c0-.661-.171-1.179-.512-1.552-.341-.379-.795-.568-1.36-.568-.56 0-1.013.192-1.36.576-.347.384-.52.893-.52 1.528l-.752-.448a2.825 2.825 0 0 1 1.488-2.544 3.148 3.148 0 0 1 1.56-.384c.581 0 1.088.123 1.52.368.432.245.765.597 1 1.056.235.453.352.995.352 1.624L166.751 65h-1.416z"/><path fill="#383838" d="M195.488 83.005s-.139-.122-.312-.384a2.973 2.973 0 0 1-.433-1.186 2.954 2.954 0 0 1-.035-.89c0-.174.035-.348.069-.523.035-.174.087-.366.139-.575.26-.803.745-1.727 1.559-2.739a20.877 20.877 0 0 1 2.201-2.267c.78-.68 1.559-1.309 2.235-1.815.693-.505 1.282-.941 1.698-1.238.208-.14.381-.262.485-.331a.884.884 0 0 0 .174-.122s-.104 1.343-.434 2.895c-.311 1.552-.849 3.314-1.455 4.1-.312.4-.832.889-1.456 1.43a62.196 62.196 0 0 1-1.992 1.64c-.676.522-1.3 1.028-1.733 1.395-.225.192-.416.331-.537.436a1.677 1.677 0 0 1-.208.157l.035.017zm8.663-4.605s-.139-.139-.278-.4a3.556 3.556 0 0 1-.381-1.17c-.069-.505-.052-1.15.156-1.9s.589-1.605 1.23-2.565a19.133 19.133 0 0 1 1.716-2.197 49.793 49.793 0 0 1 1.715-1.867c.52-.54.97-1.012 1.282-1.326l.382-.383.138-.14s0 .087.035.227c.017.14.035.349.069.593.035.244.052.558.069.872 0 .331.035.698.018 1.064v.576c0 .192-.018.383-.035.575-.035.384-.069.768-.138 1.134-.07.367-.139.715-.226 1.012a3.494 3.494 0 0 1-.329.767c-.243.402-.676.942-1.23 1.5a28.201 28.201 0 0 1-1.802 1.692 37.213 37.213 0 0 1-1.664 1.344c-.433.348-.727.558-.727.558v.035zm8.229-5.041s-.139-.122-.329-.349a3.238 3.238 0 0 1-.537-1.082 5.248 5.248 0 0 1-.191-1.831c.052-.733.243-1.587.624-2.581.294-.803.675-1.588 1.039-2.338.364-.733.745-1.448 1.057-2.04.329-.611.589-1.117.78-1.483.087-.175.173-.332.225-.437.035-.052.052-.087.07-.122 0-.017.017-.034.017-.034s.035.07.104.191c.052.123.138.297.242.524.104.226.208.488.312.785.052.14.122.314.174.47.034.088.052.158.086.245.018.087.052.174.07.261.103.35.207.716.277 1.082.069.366.138.733.173 1.081l.052.524v.488c0 .157 0 .297-.035.436-.017.14-.052.244-.086.367-.035.104-.07.226-.122.366-.052.122-.121.261-.173.401-.069.14-.138.296-.225.454-.087.157-.173.313-.277.47a16.063 16.063 0 0 1-1.369 1.954c-.243.314-.485.593-.711.872-.225.262-.45.506-.623.698-.191.21-.33.366-.451.47l-.173.175v-.017zm6.93-6.646s-.156-.07-.398-.244a3.62 3.62 0 0 1-.797-.872 4.575 4.575 0 0 1-.382-.715c-.052-.14-.104-.28-.156-.437a4.074 4.074 0 0 1-.138-.488 30.75 30.75 0 0 1-.104-.54c-.035-.193-.052-.402-.069-.611 0-.21-.035-.436-.035-.663v-.715c.035-.803.139-1.622.243-2.407.121-.785.242-1.535.346-2.216.121-.662.208-1.238.295-1.64.034-.209.069-.365.086-.488.018-.104.035-.174.035-.174s.208.227.52.576c.156.191.329.4.52.645.19.244.398.523.606.82.398.593.797 1.256 1.074 1.884.139.314.26.628.347.907.086.279.138.54.138.767 0 .227 0 .489-.052.803-.017.157-.052.313-.086.488l-.104.523c-.052.175-.087.367-.139.541a7.011 7.011 0 0 1-.173.558c-.052.192-.121.366-.191.558-.069.192-.138.367-.208.541-.277.715-.589 1.36-.814 1.849-.121.227-.225.419-.295.558a1.49 1.49 0 0 1-.121.21l.052-.018zm4.592-8.425s-.174 0-.434-.104c-.277-.088-.623-.262-1.005-.559-.381-.296-.779-.732-1.143-1.325a12.335 12.335 0 0 1-.26-.489 5.168 5.168 0 0 1-.243-.54 2.05 2.05 0 0 0-.121-.297c-.035-.105-.069-.21-.121-.314-.035-.105-.07-.227-.104-.331-.035-.123-.069-.227-.104-.35a19.652 19.652 0 0 1-.468-2.406 5.892 5.892 0 0 0-.087-.593 6.64 6.64 0 0 1-.069-.576c-.052-.384-.104-.733-.139-1.064a10.295 10.295 0 0 1-.103-.907c-.035-.28-.07-.523-.087-.715a6.34 6.34 0 0 0-.052-.471v-.175s.26.14.658.384c.382.244.919.61 1.456 1.047.26.226.537.453.797.697.138.122.26.244.381.384.121.122.243.262.347.384.225.261.415.523.589.767a3.235 3.235 0 0 1 .45 1.047c0 .07.035.14.052.21 0 .069.035.139.035.226.052.296.086.645.121.994.052.715.052 1.535 0 2.285-.035.75-.121 1.465-.208 1.971 0 .07 0 .122-.017.192 0 .053 0 .105-.035.157 0 .105-.034.192-.052.262-.034.14-.034.227-.034.227v-.018zm1.821-9.471s-.174.035-.451.035-.658-.07-1.091-.227a4.836 4.836 0 0 1-1.439-.907 6.879 6.879 0 0 1-.762-.802c-.069-.087-.121-.157-.191-.244-.069-.088-.121-.175-.19-.262-.139-.175-.26-.366-.399-.576a12.466 12.466 0 0 1-.312-.506c-.104-.157-.19-.331-.294-.505-.087-.175-.191-.35-.277-.524-.052-.087-.087-.174-.139-.261l-.069-.14-.07-.122c-.173-.349-.329-.68-.502-1.012-.087-.157-.156-.314-.225-.47a5.627 5.627 0 0 1-.226-.454c-.277-.576-.502-1.082-.675-1.448-.087-.174-.139-.331-.191-.419-.052-.104-.069-.157-.069-.157s.069 0 .19.035c.139.018.312.07.537.122.226.053.486.123.763.21.138.035.294.087.45.14.139.052.312.104.468.156.312.122.641.244.971.401.311.14.623.314.918.471.069.053.138.088.208.123a.773.773 0 0 1 .19.139l.364.262c.104.087.208.174.295.261a.886.886 0 0 1 .121.14c.035.052.069.087.104.14.121.174.26.4.399.662.069.122.138.28.207.419.07.14.139.314.191.47.035.088.069.158.104.245.035.087.052.174.087.262.052.174.121.349.173.523.035.087.069.174.087.28.017.086.052.173.069.278.052.175.104.367.139.54.017.088.051.175.069.263l.052.261c.034.175.069.35.104.506.069.314.104.628.156.872.034.244.069.454.086.61 0 .14.018.227.018.227l.052-.017zm-1.178-9.577s-.138.088-.398.175-.624.157-1.092.14c-.45 0-1.022-.122-1.628-.384a7.478 7.478 0 0 1-.971-.506c-.329-.21-.71-.453-1.057-.767-1.195-.96-2.322-2.18-3.223-3.158-.121-.122-.225-.244-.329-.349-.104-.122-.19-.226-.294-.33-.191-.21-.347-.402-.485-.542-.278-.296-.434-.488-.434-.488s.278-.017.745-.035h.797c.295 0 .624 0 .953.035.087 0 .174 0 .26.017.087 0 .174 0 .26.018.174.017.347.035.52.07.173.017.347.052.52.087.156.035.329.07.485.105.312.07.624.156.884.261.26.105.485.21.658.332.173.122.364.296.572.488l.329.331c.104.122.225.245.329.384.122.14.226.28.347.419.104.14.208.296.329.436l.173.227s.104.157.156.226c.104.157.208.314.312.454.208.296.381.61.537.89.174.279.295.54.416.75.121.226.208.4.277.523.052.122.087.192.087.192h-.035zm-4.178-8.703s-.104.122-.329.279a2.983 2.983 0 0 1-.97.453 3.18 3.18 0 0 1-.728.122 7.768 7.768 0 0 1-.901 0c-.156 0-.329-.034-.502-.087a8.21 8.21 0 0 1-.555-.14c-.19-.052-.381-.122-.589-.191a6.17 6.17 0 0 1-.641-.262 6.987 6.987 0 0 1-.52-.244 7.815 7.815 0 0 1-.52-.28 20.272 20.272 0 0 1-1.039-.592c-.329-.21-.676-.419-.988-.628a6.964 6.964 0 0 0-.468-.297c-.156-.104-.294-.192-.433-.296a5.79 5.79 0 0 0-.416-.28c-.138-.087-.242-.174-.364-.261-.225-.157-.433-.314-.606-.436s-.295-.227-.399-.297c-.086-.07-.138-.104-.138-.104s.069-.018.19-.053c.122-.035.295-.07.52-.122.433-.104 1.04-.227 1.698-.331.156-.018.329-.052.503-.07l.502-.052c.347-.018.676-.053 1.005-.053.329 0 .641 0 .901.053.277.035.52.087.711.174.104.035.208.087.312.14.121.052.225.122.363.192.122.07.26.14.399.226.139.088.277.175.416.28.138.087.277.191.433.296.139.105.277.21.433.331.295.227.572.471.849.698.139.122.26.227.381.349.122.105.243.227.364.331.225.21.433.419.607.593.173.175.312.314.398.42.087.104.139.156.139.156l-.018-.017z"/><path fill="#E94B30" d="M213.854 22.791s-.208.018-.589 0a5.61 5.61 0 0 1-.693-.052c-.139 0-.278-.035-.416-.07-.156-.035-.312-.052-.485-.105a12.156 12.156 0 0 1-2.305-.802c-.866-.401-1.819-.96-2.859-1.744a29.322 29.322 0 0 1-2.339-1.989 52.446 52.446 0 0 1-1.958-1.953c-.572-.593-1.04-1.117-1.369-1.483-.329-.366-.52-.593-.52-.593s.104 0 .312.035c.191.035.485.07.815.14.693.121 1.628.33 2.633.592 1.005.262 2.045.611 2.963.977.919.367 1.698.75 2.131 1.082.901.663 2.149 2.128 3.085 3.47.121.158.225.332.346.49.104.156.208.313.312.453.208.296.364.575.503.802.138.227.259.419.329.541.069.14.121.21.121.21h-.017z"/><path fill="#383838" d="M199.522 82.255s.052.175.19.454c.139.279.381.645.763.994a4.76 4.76 0 0 0 1.68.96c.763.244 1.716.4 2.981.313 1.005-.052 2.096-.261 3.17-.558a25.763 25.763 0 0 0 3.033-1.046 29.79 29.79 0 0 0 2.27-1.082c.277-.14.502-.279.658-.366.156-.087.225-.14.225-.14s-.346-.087-.901-.244c-.554-.157-1.299-.349-2.114-.576a45.005 45.005 0 0 0-2.443-.593c-.78-.157-1.49-.261-1.992-.209-.503.052-1.231.21-2.028.419-.797.209-1.663.453-2.477.697-.815.245-1.56.471-2.097.663-.537.175-.884.297-.884.297l-.034.017zm8.579-4.553s.052.175.208.436c.138.262.398.61.797.925.208.174.45.314.745.453.294.14.624.244 1.022.332.797.157 1.802.192 3.102-.088 1.039-.209 2.148-.61 3.205-1.116 1.057-.488 2.062-1.099 2.928-1.692.208-.157.434-.296.624-.436.191-.157.381-.296.572-.436.346-.279.658-.523.901-.75.26-.21.45-.401.589-.523.139-.122.208-.192.208-.192h-1.958c-.381 0-.78 0-1.196-.018-.849-.017-1.732-.034-2.529-.034h-.589c-.191 0-.364 0-.538.034-.346.035-.641.07-.883.14-.503.14-1.178.419-1.941.75-.745.331-1.594.68-2.374 1.012-.779.331-1.49.628-2.01.854l-.866.35h-.017zm8.005-5.704s.086.157.277.384c.191.227.502.506.953.733.225.122.502.21.814.279.312.07.676.105 1.075.087.208 0 .415-.035.641-.052.225-.035.468-.087.727-.157.26-.07.52-.157.798-.262.138-.052.294-.105.433-.174.156-.07.294-.14.45-.21.97-.488 1.958-1.186 2.859-1.988a21.474 21.474 0 0 0 2.391-2.53c.676-.837 1.179-1.639 1.542-2.197.174-.28.312-.523.399-.68.087-.157.139-.245.139-.245s-.347.122-.901.297c-.26.087-.59.192-.953.296-.174.053-.364.123-.555.175-.191.052-.381.122-.589.174-.399.122-.797.245-1.213.367-.191.052-.398.122-.606.174-.208.07-.399.122-.59.174-.19.07-.363.123-.554.192-.173.07-.347.122-.502.175-.156.07-.295.14-.434.192-.138.07-.26.122-.364.192-.103.07-.225.139-.346.244-.121.087-.26.191-.399.296-.277.21-.589.454-.918.715-.658.506-1.369 1.064-2.044 1.57-.676.506-1.3.942-1.768 1.274-.225.157-.416.279-.554.383-.139.088-.208.14-.208.14v-.018zm6.343-7.605s.121.14.363.28c.243.156.607.33 1.109.4.243.035.52.053.849.018a4.414 4.414 0 0 0 1.04-.244c.364-.14.797-.332 1.213-.628.433-.28.901-.663 1.369-1.134.762-.768 1.473-1.745 2.062-2.756.294-.506.571-1.03.814-1.535.121-.262.225-.506.347-.768.103-.244.19-.506.294-.75.191-.488.329-.942.468-1.343.139-.419.225-.785.312-1.081.069-.314.121-.558.173-.733l.052-.262s-.294.192-.745.506a7.397 7.397 0 0 1-.381.262c-.139.087-.277.192-.433.296-.295.192-.624.42-.953.646-.347.227-.693.453-1.023.698-.346.226-.675.47-.987.697a22.33 22.33 0 0 0-.867.663c-.121.105-.242.21-.346.314-.104.105-.191.192-.277.297-.07.087-.156.209-.26.331-.087.122-.191.262-.278.401-.104.14-.19.297-.311.454-.104.157-.208.314-.33.488-.45.68-.935 1.413-1.42 2.093-.052.087-.122.157-.174.245-.052.087-.121.157-.173.244-.121.157-.225.314-.329.453-.225.297-.416.558-.589.768-.174.21-.312.4-.416.523-.104.122-.156.192-.156.192l-.017-.035zm3.672-9.228s.156.088.433.14c.278.07.676.122 1.144.035.243-.035.502-.122.797-.227a4.66 4.66 0 0 0 1.351-.925c.156-.156.312-.33.486-.523.156-.192.329-.418.485-.645.156-.244.312-.506.468-.785.121-.227.242-.471.363-.715.104-.244.208-.506.312-.785.208-.523.364-1.082.503-1.64l.104-.418c.034-.14.052-.28.086-.419.052-.28.104-.558.139-.837.035-.28.069-.559.104-.82.035-.262.052-.523.069-.785 0-.262.018-.506.035-.75v-.698c0-.436 0-.82-.035-1.134 0-.314-.034-.575-.052-.75 0-.174-.034-.261-.034-.261s-.208.279-.555.715c-.086.104-.173.227-.26.349a8.013 8.013 0 0 0-.312.4c-.225.28-.467.577-.71.908-.243.314-.502.628-.762.96-.243.313-.503.627-.745.941-.226.297-.451.593-.624.872a5.056 5.056 0 0 0-.433.75c-.191.454-.399 1.134-.624 1.902a99.93 99.93 0 0 0-.364 1.186c-.139.401-.26.802-.381 1.186-.139.384-.26.75-.364 1.081a2.999 2.999 0 0 1-.173.471 5.444 5.444 0 0 1-.156.419c-.087.262-.174.471-.226.61l-.086.227.017-.035zm.815-9.925s.173.035.433 0a2.698 2.698 0 0 0 1.091-.314c.434-.21.884-.593 1.335-1.221.433-.645.831-1.535 1.057-2.826l.104-.785c0-.14.017-.279.034-.418v-.419c0-.558 0-1.134-.052-1.692-.086-1.134-.312-2.233-.554-3.21-.122-.47-.26-.924-.381-1.325l-.364-1.047a17.242 17.242 0 0 0-.381-.907s-.122.314-.295.82c-.052.122-.087.262-.139.419-.052.14-.121.296-.173.47-.121.332-.242.68-.381 1.047-.139.367-.277.75-.416 1.117-.069.191-.139.366-.191.558a6.829 6.829 0 0 0-.19.54 6.288 6.288 0 0 0-.173.524c-.018.087-.052.157-.07.244-.017.07-.052.157-.069.244a4.4 4.4 0 0 0-.156.82c0 .244-.035.54-.017.872v1.099c0 .192 0 .401.017.593v3.471c0 .157 0 .297-.017.436 0 .262-.018.489-.035.628v.227l-.017.035zm-2.392-9.698s.156-.018.416-.123a2.91 2.91 0 0 0 .901-.627c.329-.332.641-.838.849-1.553a6.34 6.34 0 0 0 .208-1.256v-.767c0-.14 0-.28-.035-.436 0-.14-.034-.297-.052-.454a10.956 10.956 0 0 0-.138-.75c-.052-.262-.122-.506-.191-.768-.035-.122-.069-.261-.104-.383-.034-.122-.086-.244-.121-.384-.087-.244-.191-.506-.277-.75l-.312-.733-.156-.366c-.052-.122-.121-.227-.173-.349-.122-.227-.226-.453-.347-.68l-.364-.628a23.617 23.617 0 0 0-1.265-1.936 7.67 7.67 0 0 0-.416-.54 4.232 4.232 0 0 1-.156-.193s-.034.314-.086.837c-.052.506-.121 1.204-.208 1.954l-.104 1.151c-.035.384-.069.768-.087 1.134 0 .175 0 .349-.017.523v.489c0 .314.035.575.087.82.052.226.121.505.225.802.087.314.208.645.329 1.012.121.366.26.732.381 1.116.07.192.122.384.191.576.035.087.069.192.104.279.034.087.052.192.086.279.122.366.243.715.33 1.047.052.174.104.314.138.47.018.07.052.14.07.21.017.07.034.14.052.192l.225.82.017-.035zm-5.181-8.477s.139-.07.346-.227c.208-.157.468-.436.694-.837.207-.401.398-.942.415-1.675 0-.366-.034-.767-.121-1.22-.052-.227-.104-.472-.173-.716-.035-.122-.087-.261-.121-.384-.052-.122-.104-.261-.156-.4-.347-.873-.867-1.763-1.439-2.6a20.614 20.614 0 0 0-1.784-2.25 25.759 25.759 0 0 0-1.542-1.552c-.208-.175-.364-.332-.468-.419a2.127 2.127 0 0 0-.173-.14s.017.315.069.803c.017.244.052.54.069.855.035.314.052.68.087 1.029.034.349.069.732.121 1.099.017.191.052.366.069.54.018.192.052.367.07.541.104.68.225 1.308.416 1.71.086.209.225.453.381.715.156.261.346.558.537.872.19.314.398.628.624.96.104.156.208.33.312.488l.311.47c.416.628.78 1.222 1.04 1.658.139.209.243.383.312.505.069.123.121.192.121.192l-.017-.017z"/></svg>