<svg xmlns="http://www.w3.org/2000/svg" width="31" height="30" fill="none"><g fill="#E6E6E6" clip-path="url(#a)"><path d="M11.006 28H9.375c-.022-.016-.044-.037-.071-.037-.962-.121-1.691-.622-2.273-1.35C6.01 25.332 4.992 24.04 3.95 22.77c-.87-1.066-1.333-2.23-1.284-3.618.06-1.798.017-3.602.017-5.4V5.213c0-.759.2-1.455.696-2.056.652-.796 1.55-1.076 2.55-1.14l5.578-.379c2.463-.174 4.926-.348 7.389-.527.304-.021.609-.064.908-.1h1.359c.033.015.06.042.092.042a4.05 4.05 0 0 1 1.882.685c1.75 1.182 3.496 2.373 5.246 3.56.886.601 1.272 1.408 1.267 2.468-.022 4.983-.01 9.967-.01 14.945 0 .437.005.88-.006 1.318-.038 1.508-.92 2.6-2.43 2.922-.702.147-1.436.163-2.154.21-1.348.09-2.69.153-4.04.233-1.652.095-3.305.2-4.958.295-1.354.079-2.713.148-4.067.227-.32.015-.647.052-.978.084zm17.017-12.271c0-2.7-.005-5.395.006-8.095 0-.454-.163-.775-.533-1.023-1.658-1.129-3.327-2.247-4.97-3.396-.799-.564-1.668-.691-2.62-.612-1.12.095-2.24.164-3.36.243-1.093.079-2.186.153-3.278.232-1.382.1-2.763.195-4.143.3-1.164.085-2.328.159-3.491.264-.587.053-1.028.348-1.207.912-.07.232-.109.48-.109.723-.005 4.735 0 9.47-.01 14.206 0 .68.168 1.292.581 1.825a418.83 418.83 0 0 0 3.616 4.546c.299.369.728.559 1.212.559.68-.006 1.36-.032 2.034-.069 1.38-.074 2.767-.163 4.148-.242 1.327-.08 2.659-.153 3.985-.227 1.42-.085 2.838-.164 4.257-.248.816-.047 1.626-.09 2.436-.163.854-.074 1.305-.507 1.425-1.33.016-.131.016-.263.016-.395.005-2.668.005-5.342.005-8.01z"/><path d="M26.392 15.813v6.75c0 .106.006.211-.005.317-.049.606-.348.87-.973.901-1.773.095-3.545.2-5.318.3-1.419.08-2.838.149-4.257.228-1.718.095-3.436.2-5.154.295-.223.01-.457.021-.68-.005-.505-.069-.723-.306-.783-.797-.01-.095-.005-.195-.005-.29v-13.6c0-.137.01-.28.033-.416.07-.37.271-.56.657-.586 1.202-.074 2.404-.142 3.605-.21 1.408-.08 2.822-.164 4.23-.243 1.077-.064 2.153-.116 3.23-.18 1.419-.079 2.838-.163 4.257-.242.081-.006.163-.006.245-.016.739-.08.918.316.918.865v6.93zm-2.435-5.247c-1.126.063-2.251.121-3.377.2-.353.027-.62.312-.69.654-.038.18 0 .28.223.29.342.021.68.074 1.01.111v6.355c-.135-.2-.238-.348-.336-.49-1.474-2.168-2.942-4.34-4.41-6.514-.097-.147-.195-.19-.375-.174-.397.043-.793.048-1.19.074-.734.048-1.463.095-2.191.159-.539.047-.881.564-.702 1.044.38.031.767.068 1.153.1v9.128c-.261.074-.506.153-.761.211-.278.063-.408.243-.463.49-.038.18.006.28.234.264.816-.053 1.626-.084 2.441-.132.37-.02.745-.031 1.11-.09.456-.073.717-.363.744-.785-.402-.084-.804-.185-1.212-.258-.19-.037-.272-.1-.266-.306.01-2.125.005-4.25.005-6.381 0-.063.016-.121.027-.232.06.074.087.11.109.147 1.11 1.683 2.218 3.37 3.333 5.052.5.75 1.011 1.493 1.538 2.231.218.3.511.512.908.564.615.085 1.153-.116 1.702-.332.234-.09.321-.21.321-.464-.01-3.1-.005-6.201-.005-9.308 0-.574-.006-.595.587-.69.549-.095.669-.417.533-.918zm.673-4.15c-.211.02-.423.047-.635.058-2.29.132-4.573.253-6.862.385-2.24.132-4.485.258-6.725.411-.838.058-1.566-.079-2.208-.649-.5-.442-1.06-.817-1.587-1.234-.082-.063-.185-.2-.164-.268.033-.095.164-.196.267-.217.299-.058.609-.079.913-.1 2.12-.148 4.247-.29 6.367-.438 2.093-.147 4.187-.305 6.285-.448a2.729 2.729 0 0 1 1.784.512c.777.543 1.554 1.086 2.332 1.635.103.073.185.174.277.263a.464.464 0 0 1-.043.09z"/></g><defs><clipPath id="a"><path fill="#fff" d="M2.665 1h27v27h-27z"/></clipPath></defs></svg>