<svg xmlns="http://www.w3.org/2000/svg" width="25" height="24" fill="none"><path fill="#E94B30" d="M14.533 3h-4.4C5.985 3 3.911 3 2.622 4.318 1.333 5.636 1.333 7.758 1.333 12c0 4.243 0 6.364 1.289 7.682C3.911 21 5.985 21 10.133 21h4.4c4.149 0 6.223 0 7.511-1.318 1.29-1.318 1.29-3.44 1.29-7.682 0-4.243 0-6.364-1.29-7.682C20.756 3 18.682 3 14.534 3z" opacity=".5"/><path fill="#E94B30" d="M19.462 8.034a.825.825 0 0 0-1.057-1.268l-2.375 1.98c-1.026.855-1.738 1.447-2.34 1.833-.582.375-.977.5-1.356.5-.38 0-.775-.125-1.357-.5-.602-.386-1.314-.978-2.34-1.834L6.261 6.766a.825.825 0 0 0-1.057 1.268l2.416 2.013c.975.813 1.766 1.471 2.463 1.92.727.467 1.434.763 2.25.763.815 0 1.522-.296 2.249-.763.697-.449 1.487-1.107 2.463-1.92l2.416-2.013z"/></svg>